<svg xmlns="http://www.w3.org/2000/svg"
     viewBox="0 0 1024 1024"
     class="w-12 h-12 text-primary"
     fill="#422ad5">
<path d="M959.5 934.4l-83.7-277.7v-56.6h-0.1v-29.6h0.1v-11.1h-0.1v-15.6c0.5-1.8 0.9-3.8 0.9-5.8 0-11.3-9.1-20.4-20.4-20.4-11.3 0-20.4 9.1-20.4 20.4 0 2 0.4 3.9 0.9 5.8v15.6h-77.4v-95.1c8.3-1.8 45.5-9.8 60.6-14.8 62.1-20.4 67.3-45 67.3-45-12.7 6.7-25.9 6.9-36 6.4-17.9-1-42.6-22.5-50.1-29.3-11.2-10.3-38.8-42.2-41.8-45.7v-86.4c68.3-21.8 73.7-51 73.7-51-14.8 7.8-30.3 8.1-42.1 7.4-20.9-1.2-49.8-26.2-58.5-34.2-11-10.2-36.2-38.8-45.7-49.8l-3.1-4.4V95.6c0-3.3-2.7-6-6-6h-337c-3.3 0-6 2.7-6 6v21.8l-0.1 0.2c-1.1 1.3-35.8 41.5-49.4 54-8.7 8-37.6 33.1-58.5 34.2-11.8 0.7-27.3 0.4-42.1-7.4 0 0 5.6 29.9 76.3 51.8V336c-3.6 4.1-30.7 35.4-41.7 45.5-7.4 6.9-32.2 28.3-50.1 29.3-10.1 0.6-23.4 0.3-36-6.4 0 0 5.3 24.6 67.3 45 15 4.9 51.8 12.9 60.5 14.7v95.1H187v-15.6c0.5-1.8 0.9-3.8 0.9-5.8 0-11.3-9.1-20.4-20.4-20.4-11.3 0-20.4 9.1-20.4 20.4 0 2 0.4 3.9 0.9 5.8V656.5L64.5 934.4h362.1V833.6c0-46.7 36-87.5 82.8-88.9 48.4-1.5 88 37.3 88 85.3v104.3h362.1zM830.7 600.1H709.5c-3.3 0-6-2.7-6-6v-17.7c0-3.3 2.7-6 6-6h121.2c3.3 0 6 2.7 6 6v17.7c0 3.3-2.7 6-6 6z m-127.1-40.8v-15.6c0.5-1.8 0.9-3.8 0.9-5.8 0-11.3-9.1-20.4-20.4-20.4-11.3 0-20.4 9.1-20.4 20.4 0 2 0.4 3.9 0.9 5.8v15.6H608c-3.3 0-6-2.7-6-6V452c0-3.3 2.7-6 6-6h118.9c3.3 0 6 2.7 6 6v101.3c0 3.3-2.7 6-6 6h-23.3z m-172.2-15.7c0.5-1.8 0.9-3.8 0.9-5.8 0-11.3-9.1-20.4-20.4-20.4-11.3 0-20.4 9.1-20.4 20.4 0 2 0.4 3.9 0.9 5.8v15.6h-41.8c-3.3 0-6-2.7-6-6V452c0-3.3 2.7-6 6-6h118.9c3.3 0 6 2.7 6 6v101.3c0 3.3-2.7 6-6 6h-38.2v-15.7z m-86.7-233.5v-77c0-3.3 2.7-6 6-6h118.9c3.3 0 6 2.7 6 6v77c0 3.3-2.7 6-6 6H450.7c-3.3 0-6-2.7-6-6z m288.2-77v77c0 3.3-2.7 6-6 6H608c-3.3 0-6-2.7-6-6v-77c0-3.3 2.7-6 6-6h118.9c3.3 0 6 2.7 6 6z m-439.5-6h118.9c3.3 0 6 2.7 6 6v77c0 3.3-2.7 6-6 6H293.4c-3.3 0-6-2.7-6-6v-77c0-3.3 2.7-6 6-6z m0 218.9h118.9c3.3 0 6 2.7 6 6v101.3c0 3.3-2.7 6-6 6h-53v-15.6c0.5-1.8 0.9-3.8 0.9-5.8 0-11.3-9.1-20.4-20.4-20.4s-20.4 9.1-20.4 20.4c0 2 0.4 3.9 0.9 5.8v15.6h-26.9c-3.3 0-6-2.7-6-6V452c0-3.3 2.7-6 6-6zM193.2 570.4h121.2c3.3 0 6 2.7 6 6v17.7c0 3.3-2.7 6-6 6H193.2c-3.3 0-6-2.7-6-6v-17.7c0-3.3 2.7-6 6-6z m166.1 23.7v-17.7c0-3.3 2.7-6 6-6h121.2c3.3 0 6 2.7 6 6v17.7c0 3.3-2.7 6-6 6H365.3c-3.3 0-6-2.7-6-6z m172.1 0v-17.7c0-3.3 2.7-6 6-6h121.2c3.3 0 6 2.7 6 6v17.7c0 3.3-2.7 6-6 6H537.4c-3.3 0-6-2.7-6-6z"></path>
</svg>
